<svg xmlns="http://www.w3.org/2000/svg" viewBox="0 0 100 100" width="100" height="100">
  <defs>
    <linearGradient id="gradient1" x1="0%" y1="0%" x2="100%" y2="100%">
      <stop offset="0%" stop-color="#3b82f6" />
      <stop offset="50%" stop-color="#60a5fa" />
      <stop offset="100%" stop-color="#1e40af" />
    </linearGradient>
    <linearGradient id="gradient2" x1="0%" y1="0%" x2="100%" y2="100%">
      <stop offset="0%" stop-color="#0dd3ff" />
      <stop offset="50%" stop-color="#3b82f6" />
      <stop offset="100%" stop-color="#60a5fa" />
    </linearGradient>
    <linearGradient id="gradient3" x1="0%" y1="0%" x2="100%" y2="100%">
      <stop offset="0%" stop-color="#1d4ed8" />
      <stop offset="50%" stop-color="#2563eb" />
      <stop offset="100%" stop-color="#3b82f6" />
    </linearGradient>
  </defs>
  
  <!-- Background circle -->
  <circle cx="50" cy="50" r="48" fill="none" stroke="url(#gradient1)" stroke-width="2" opacity="0.8"/>
  
  <!-- Outer ring - dashed -->
  <circle cx="50" cy="50" r="42" fill="none" stroke="url(#gradient2)" stroke-width="1.5" 
          stroke-dasharray="3,2" opacity="0.9"/>
  
  <!-- Second ring - solid -->
  <circle cx="50" cy="50" r="36" fill="none" stroke="url(#gradient3)" stroke-width="2" opacity="0.9"/>
  
  <!-- Third ring - dashed -->
  <circle cx="50" cy="50" r="30" fill="none" stroke="url(#gradient1)" stroke-width="1.5" 
          stroke-dasharray="4,3" opacity="0.8"/>
  
  <!-- Fourth ring - partial -->
  <path d="M 50,20 A 30,30 0 0,1 80,50" fill="none" stroke="url(#gradient2)" stroke-width="2" 
        stroke-linecap="round" opacity="0.9"/>
  <path d="M 80,50 A 30,30 0 0,1 50,80" fill="none" stroke="url(#gradient3)" stroke-width="2" 
        stroke-linecap="round" opacity="0.8"/>
  <path d="M 50,80 A 30,30 0 0,1 20,50" fill="none" stroke="url(#gradient1)" stroke-width="2" 
        stroke-linecap="round" opacity="0.9"/>
  <path d="M 20,50 A 30,30 0 0,1 50,20" fill="none" stroke="url(#gradient2)" stroke-width="2" 
        stroke-linecap="round" opacity="0.8"/>
  
  <!-- Inner ring - dashed segments -->
  <path d="M 50,26 A 24,24 0 0,1 74,50" fill="none" stroke="url(#gradient3)" stroke-width="1.5" 
        stroke-dasharray="2,2" opacity="0.7"/>
  <path d="M 74,50 A 24,24 0 0,1 50,74" fill="none" stroke="url(#gradient1)" stroke-width="1.5" 
        stroke-dasharray="2,2" opacity="0.7"/>
  <path d="M 50,74 A 24,24 0 0,1 26,50" fill="none" stroke="url(#gradient2)" stroke-width="1.5" 
        stroke-dasharray="2,2" opacity="0.7"/>
  <path d="M 26,50 A 24,24 0 0,1 50,26" fill="none" stroke="url(#gradient3)" stroke-width="1.5" 
        stroke-dasharray="2,2" opacity="0.7"/>
  
  <!-- Center elements -->
  <circle cx="50" cy="50" r="8" fill="none" stroke="url(#gradient2)" stroke-width="1.5" 
          stroke-dasharray="2,1" opacity="0.6"/>
  <circle cx="50" cy="50" r="3" fill="url(#gradient1)" opacity="0.8"/>
</svg> 